<?xml version="1.0" encoding="UTF-8"?>
<svg xmlns="http://www.w3.org/2000/svg" width="134.4049825188976" height="191.89398193359375" viewBox="120.0 142.5 134.4049825188976 191.89398193359375" preserveAspectRatio="none">
  <g>
    <defs>
      <path id="s-Path_3-d1224" d="M215.76296364100529 165.70341190209894 L200.06143205292963 165.70341190209894 L200.06143205292963 149.4866054819763 C200.06143205292963 145.90985198055918 197.24381968246735 143.0 193.78066902686993 143.0 L181.2193309632873 143.0 C177.7561835365006 143.0 174.93875592576438 145.90985198055918 174.93875592576438 149.4866054819763 L174.93875592576438 165.70321626461032 L159.2372243376887 165.70321626461032 C155.77407691090207 165.70321626461032 152.9566493001658 168.61306824516953 152.9566493001658 172.18982174658663 L152.9566493001658 185.1632268659257 C152.9566493001658 188.7399807378684 155.7740772696588 191.64983234790202 159.2372243376887 191.64983234790202 L174.93875592576438 191.64983234790202 L174.93875592576438 235.9753914661456 C174.93875592576438 239.55214533808825 177.75618389525738 242.4619969481219 181.2193309632873 242.4619969481219 L193.78066902686993 242.4619969481219 C197.2438164536566 242.4619969481219 200.06124406439284 239.55214496756273 200.06124406439284 235.9753914661456 L200.06124406439284 191.65002798539064 L215.76277565246852 191.65002798539064 C219.22592307925518 191.65002798539064 222.04335068999143 188.74017600483145 222.04335068999143 185.16342250341432 L222.04335068999143 172.19001738407528 C222.04354298360923 168.61326314160704 219.2261142966027 165.70341190209894 215.76296364100529 165.70341190209894 Z M215.76296364100529 185.1632283480279 L196.92105340995377 185.1632283480279 C195.18684642201814 185.1632283480279 193.78067189692388 186.61533751047068 193.78067189692388 188.40662816670928 L193.78067189692388 235.9755871036342 L181.2193338333413 235.9755871036342 L181.2193338333413 188.40662816670928 C181.2193338333413 186.6155315732257 179.81334720709472 185.1632283480279 178.07895232031143 185.1632283480279 L159.2372243376887 185.1632283480279 L159.2372243376887 172.18982322868882 L178.07913887382122 172.18982322868882 C179.8133458617569 172.18982322868882 181.21952038685112 170.73771406624607 181.21952038685112 168.94642341000747 L181.21952038685112 149.4866054819763 L193.78085845043373 149.4866054819763 L193.78085845043373 168.9466175653939 C193.78085845043373 170.73771415887745 195.18684507668027 172.19001738407528 196.92123996346362 172.19001738407528 L215.7631544995961 172.19001738407528 L215.7631544995961 185.1632283480279 Z "></path>
    </defs>
    <g style="mix-blend-mode:normal">
      <use xmlns:xlink="http://www.w3.org/1999/xlink" xlink:href="#s-Path_3-d1224" fill="#4F4949" fill-opacity="1.0"></use>
    </g>
  </g>
  <g>
    <defs>
      <path id="s-Path_1-d1224" d="M166.42782011808796 263.58869471062036 L166.42782011808796 224.70860802191905 C166.42782011808796 223.378391141563 165.34931476506668 222.2998858603272 164.01909795649613 222.2998858603272 C162.6888811479256 222.2998858603272 161.61037579490431 223.37839121334852 161.61037579490431 224.70860802191905 L161.61037579490431 258.77094946256034 L157.3951120121186 254.55568567977463 L157.3951120121186 218.68680261793946 C157.3951120121186 217.35658573758343 156.31660665909732 216.27808045634765 154.9863898505268 216.27808045634765 C153.65617304195627 216.27808045634765 152.57766768893498 217.35658580936894 152.57766768893498 218.68680261793946 L152.57766768893498 249.73824135659098 L149.63722017219442 246.79779383985044 C149.23978099973897 246.400354667395 148.8122328289778 246.04416488722526 148.36240390614927 245.7265146320654 L148.36240390614927 212.6649972139599 C148.36240390614927 211.33478033360387 147.28389855312798 210.2562750523681 145.95368174455743 210.2562750523681 C144.6234649359869 210.2562750523681 143.54495958296562 211.33478040538938 143.54495958296562 212.6649972139599 L143.54495958296562 243.99795691730026 C143.29926992707752 243.979289320853 143.05207482127415 243.96724571031424 142.8030731612153 243.96724571031424 C141.59570110880333 243.96724571031424 140.42355679258696 244.18975142673912 139.3296957283944 244.61037450276504 L139.3296957283944 212.6649972139599 C139.3296957283944 207.33569920172434 134.99399595238594 203.0 129.6646985144345 203.0 C124.33540107648304 203.0 120.0 207.33600070088482 120.0 212.66830968473647 C120.0 212.74388333868 120.00270981231515 214.61817022400805 120.00632289558894 217.65526774734525 C120.0042152639129 217.69802205115494 120.0 217.74017450521188 120.0 217.78353180734254 C120.0 217.8289964360608 120.0042152639129 217.87355779662454 120.00692507622804 217.91842025255525 C120.0189686867668 227.60419276866725 120.04305590784432 248.47155496156927 120.04305590784432 261.42265182553103 C120.04305590784432 261.83604877426706 120.14964186414083 262.24252064621425 120.35197453195988 262.6029257076824 L148.41358679565008 312.51857540549275 L148.41358679565008 331.9849646079131 C148.41358679565008 333.31518148826916 149.4920921486714 334.39368676950494 150.82230895724192 334.39368676950494 C152.15252576581244 334.39368676950494 153.23103111883376 333.31518141648365 153.23103111883376 331.9849646079131 L153.23103111883376 311.88779092188406 C153.23103111883376 311.47439397314804 153.12444516253723 311.06792210120085 152.9221124947182 310.7075170397327 L124.86050023102798 260.79186734192234 C124.85989805045898 248.75879464747743 124.83942391202432 230.40674059938334 124.82707921060518 220.19225456116487 L126.04227947336273 220.19225456116487 C127.37249635371877 220.19225456116487 128.45100163495457 219.11374920814356 128.45100163495457 217.78353239957303 C128.45100163495457 216.4533155910025 127.37249628193327 215.3748102379812 126.04227947336273 215.3748102379812 L124.82105726737302 215.3748102379812 C124.81894963541657 213.70135048979822 124.81744418409922 212.71859200981686 124.81744418409922 212.6649978061904 C124.81744418409922 209.99221952127968 126.99191815223043 207.81744434113003 129.6649976491596 207.81744434113003 C132.33807714608878 207.81744434113003 134.51255111421997 209.99191830926122 134.51255111421997 212.6649978061904 L134.51255111421997 248.5010639765456 C134.51255111421997 248.5525504138982 134.517067468172 248.60253140133548 134.52037946140666 248.65311456156036 C132.28869832470912 252.36646091905564 132.77074394033173 257.26730737572404 135.96952699274846 260.4660905717118 L158.29597283718275 282.7925364161461 C159.23657886310716 283.7331424420705 160.7616010988935 283.7331424420705 161.7022069812469 282.7925364161461 C162.64311407561868 281.8519303902217 162.64311407561868 280.32690815443533 161.7022069812469 279.38630227208193 L144.3582030291393 262.0422983199744 L146.77625903045575 259.62424231865793 C147.71716612482754 258.6836362927335 147.71716612482754 257.15861405694716 146.77625903045575 256.2180081745938 C145.83565300453134 255.277101080222 144.310630768745 255.2774021486694 143.3700248863916 256.2180081745938 L140.95196888507516 258.63606417591024 L139.37606234883103 257.0601576396661 C137.48611873772342 255.17021402855852 137.48611873772342 252.0948782281227 139.37606234883103 250.2046335485677 C141.2660059599386 248.3143888690127 144.34134176037446 248.3146899374601 146.23158643992946 250.2046335485677 L153.28221781857508 257.2555629963722 C153.28312108939352 257.2564662671906 153.28372326989242 257.2570684476895 153.28462654085106 257.25797171864815 L162.3149259245444 266.2882711023415 C162.31582919536288 266.28917437316 162.31643137586178 266.28977655365884 162.31733464682043 266.29067982461754 L172.51947702226641 276.49282220006353 C179.83747613133804 283.8108213091351 179.77394595109214 289.55020412236496 179.5071800681756 313.70456759132975 C179.4490696449145 318.9727439708986 179.38313087671003 324.94396585572576 179.38313087671003 331.98496246752705 C179.38313087671003 333.31517934788315 180.4616362297313 334.39368462911887 181.79185303830184 334.39368462911887 C183.1220698468724 334.39368462911887 184.20057519989368 333.31517927609764 184.20057519989368 331.98496246752705 C184.20057519989368 324.97046217623364 184.26621287721778 319.01339122628957 184.32432330496545 313.7578611572219 C184.59500345457218 289.2376706668862 184.67659890817686 281.8374754209717 175.92571157909725 273.08628827969125 L166.42782011808796 263.58869471062036 Z "></path>
    </defs>
    <g style="mix-blend-mode:normal">
      <use xmlns:xlink="http://www.w3.org/1999/xlink" xlink:href="#s-Path_1-d1224" fill="#4F4949" fill-opacity="1.0"></use>
    </g>
  </g>
  <g>
    <defs>
      <path id="s-Path_2-d1224" d="M254.3983596983448 217.65346104951877 C254.4022740188741 214.6160620270211 254.40498463989792 212.7414746295834 254.40498463989792 212.6649972139599 C254.40498463989792 207.33569920172434 250.06958578876583 203.0 244.739987425938 203.0 C239.4103890631102 203.0 235.0749902119781 207.33569977600845 235.0749902119781 212.6649972139599 L235.0749902119781 244.61037349776785 C233.98112929135658 244.18975040379556 232.8086837631218 243.96724470531706 231.60161277915716 243.96724470531706 C231.35261111909836 243.96724470531706 231.10541601329498 243.97958940673618 230.85972635740688 243.99795591230304 L230.85972635740688 212.6649972139599 C230.85972635740688 211.33478033360387 229.7812210043856 210.2562750523681 228.45100419581507 210.2562750523681 C227.12078738724455 210.2562750523681 226.0422820342232 211.33478040538938 226.0422820342232 212.6649972139599 L226.0422820342232 245.72651534992056 C225.59245318318023 246.04446667352784 225.16490497652632 246.40035534935737 224.76746576817806 246.79809562615299 L221.82701825143755 249.73854314289355 L221.82701825143755 218.68680261793946 C221.82701825143755 217.35658573758343 220.7485128984162 216.27808045634765 219.41829608984568 216.27808045634765 C218.08807928127516 216.27808045634765 217.00957392825387 217.35658580936894 217.00957392825387 218.68680261793946 L217.00957392825387 254.55568567977463 L212.7943101454682 258.77094946256034 L212.7943101454682 224.70860802191905 C212.7943101454682 223.378391141563 211.71580479244687 222.2998858603272 210.38558798387635 222.2998858603272 C209.05537117530582 222.2998858603272 207.97686582228454 223.37839121334852 207.97686582228454 224.70860802191905 L207.97686582228454 263.5883960828804 L198.47867230101002 273.08658960415494 C189.72778493603766 281.8377784682878 189.80938037169594 289.2379754370546 190.08006057514183 313.75816248168564 C190.13786990752254 319.0139940499138 190.20380868021357 324.97076464926556 190.20380868021357 331.9852637919908 C190.20380868021357 333.31548067234684 191.28231403323488 334.3939859535826 192.61253084180544 334.3939859535826 C193.94274765037596 334.3939859535826 195.02125300339725 333.31548060056133 195.02125300339725 331.9852637919908 C195.02125300339725 324.9442677544736 194.95531423519276 318.97304586964646 194.8972038119317 313.70486891579344 C194.63043783928322 289.5502033733841 194.566907784662 283.8111203364624 201.88520778271723 276.4931235245272 L228.1740003884591 250.20463184366173 C229.08931479837833 249.2890163652951 230.30662282740974 248.78499117373082 231.60161197157015 248.78499117373082 C232.89660111573056 248.78499117373082 234.11390914476198 249.2890162935096 235.02922355468115 250.20463184366173 C236.9191671657888 252.0945754547693 236.9191671657888 255.16991125520516 235.02922355468115 257.0601559347602 L233.45361823045545 258.6357612589859 L231.03586344115746 256.21800646968785 C230.09495634678564 255.27740044376344 228.57023517944668 255.27740044376344 227.62932808507486 256.21800646968785 C226.6887220591505 257.15861249561226 226.6887220591505 258.6836347313986 227.62932808507486 259.62424061375197 L230.04738408639133 262.04229661506844 L212.70307920940738 279.386300567176 C211.76247318348297 280.32690659310043 211.76247318348297 281.8519288288868 212.70307920940738 282.79253471124014 C213.64398630377917 283.73344180561196 215.16870747111813 283.73344180561196 216.10961456548995 282.79253471124014 L235.15688662635188 263.7455647238228 L235.15718771663637 263.7452636335383 C235.15718771663637 263.7452636335383 235.15718771663637 263.7452636335383 235.15718771663637 263.7452636335383 L238.4360608624744 260.46639048770027 C241.63454284644376 257.26760757885455 242.1165883184953 252.3670623342046 239.88490718179776 248.65341447754884 C239.88791808443244 248.60283131283737 239.89273552898447 248.5525492345197 239.89273552898447 248.50136389253404 L239.89273552898447 212.6649972139599 C239.89273552898447 209.99221892904916 242.06751056556305 207.81744374889954 244.74028899404482 207.81744374889954 C247.41306742252658 207.81744374889954 249.5875403167143 209.99221864190713 249.5875403167143 212.66168474318334 C249.5875403167143 212.71588099397272 249.58603486539693 213.6998439810466 249.58392723344048 215.3748090714666 L248.36240395900336 215.3748090714666 C247.03218707864733 215.3748090714666 245.95368179741155 216.4533144244879 245.95368179741155 217.78353123305843 C245.95368179741155 219.11374804162895 247.03218715043283 220.19225339465027 248.36240395900336 220.19225339465027 L249.5776042217609 220.19225339465027 C249.56495843058303 230.40824635438705 249.54478538309883 248.75909555440745 249.54388211045773 260.79186617540773 L221.48226984676757 310.7075158732181 C221.2796361015279 311.0679209346863 221.173351222652 311.4743927707407 221.173351222652 311.88778975536945 L221.173351222652 331.9849634413985 C221.173351222652 333.31518032175455 222.2518565756733 334.39368560299033 223.5820733842438 334.39368560299033 C224.91229019281434 334.39368560299033 225.99079554583562 333.31518024996905 225.99079554583562 331.9849634413985 L225.99079554583562 312.51857423897815 L254.05240780952585 262.6029245411678 C254.25504155476546 262.24251947969964 254.3613264336414 261.8360476436452 254.3613264336414 261.4226506590164 C254.3613264336414 248.47305956800477 254.3854136547189 227.60900869731108 254.397758356138 217.92052785731173 C254.4004681684532 217.87506322859343 254.40468343236608 217.82989968626896 254.40468343236608 217.78383287578995 C254.40498463989792 217.7398735803355 254.40076709735575 217.69681835164943 254.3983596983448 217.65346104951877 Z "></path>
    </defs>
    <g style="mix-blend-mode:normal">
      <use xmlns:xlink="http://www.w3.org/1999/xlink" xlink:href="#s-Path_2-d1224" fill="#4F4949" fill-opacity="1.0"></use>
    </g>
  </g>
</svg>
